<svg width="140" height="30" viewBox="0 0 140 30" fill="none" xmlns="http://www.w3.org/2000/svg">
<path d="M71.2612 11.1261C66.9309 11.1261 65.6991 14.8827 65.6991 19.7433V28.8092H62.3063V8.22681H65.6991V12.3918C66.5946 9.56123 68.3772 8.22681 71.5177 8.22681H74.2336V11.1261H71.2612Z" fill="#041E25" fill-opacity="0.75"/>
<path fill-rule="evenodd" clip-rule="evenodd" d="M79.922 28.809V25.4204C81.1958 27.6646 83.9958 29.1527 87.0103 29.1527C93.6782 29.1527 97.3274 24.5227 97.3274 18.5218C97.3274 12.521 93.6782 7.90305 87.0103 7.90305C83.9958 7.90305 81.1832 9.37496 79.922 11.5788V1.65553H76.525V28.809H79.922ZM86.6992 10.835C91.0043 10.835 93.8464 13.8637 93.8464 18.518C93.8464 23.1723 90.9875 26.201 86.6992 26.201C82.4109 26.201 79.6067 23.1804 79.6067 18.518C79.6067 13.8556 82.3941 10.835 86.6992 10.835Z" fill="#041E25" fill-opacity="0.75"/>
<path d="M99.564 8.22681H102.961V28.8092H99.564V8.22681Z" fill="#041E25" fill-opacity="0.75"/>
<path d="M105.816 8.2268H109.213V12.1896C110.318 9.33073 112.997 7.89926 116.263 7.89926C121.102 7.89926 124.251 11.207 124.251 16.2333V28.8092H120.854V16.7631C120.854 13.2491 118.752 10.8835 115.506 10.8835C111.853 10.8835 109.2 13.7141 109.2 17.7012V28.8092H105.803L105.816 8.2268Z" fill="#041E25" fill-opacity="0.75"/>
<path d="M132.84 1.65553V8.23059H139.42V11.1299H132.84V22.1975C132.84 24.4863 134.198 25.8369 136.279 25.8369H139.42V28.8171H136.153C132.075 28.8171 129.427 26.3666 129.427 22.3471V11.1259H124.97V8.22655H128.283C129.044 8.22655 129.427 7.89901 129.427 7.12666V1.65553H132.84Z" fill="#041E25" fill-opacity="0.75"/>
<path d="M55.5291 1.65553V19.1769C55.5291 23.3823 52.4727 25.9946 47.8438 25.9946C43.215 25.9946 40.2005 23.3823 40.2005 19.1769V1.65553H36.6354V19.0111C36.6354 25.2586 41.0918 29.1406 47.8438 29.1406C54.5958 29.1406 59.0691 25.2546 59.0691 19.007V1.65553H55.5291Z" fill="#041E25" fill-opacity="0.75"/>
<path fill-rule="evenodd" clip-rule="evenodd" d="M0.580017 15C0.580017 23.2572 6.71817 29.25 15.1813 29.25C23.6738 29.25 29.8371 23.2572 29.8371 15C29.8371 6.74276 23.6443 0.75 15.1813 0.75C6.71817 0.75 0.580017 6.74276 0.580017 15ZM2.65692 14.9994C2.65692 7.78544 7.80708 2.75103 15.1813 2.75103C22.5849 2.75103 27.7603 7.78544 27.7603 14.9994C27.7603 22.2134 22.5849 27.2478 15.1813 27.2478C7.9248 27.2478 2.65692 22.0961 2.65692 14.9994ZM15.1812 24.0943C9.77881 24.0943 5.85628 20.2689 5.85628 15C5.85628 9.73105 9.77881 5.90571 15.1812 5.90571C20.5836 5.90571 24.5482 9.74318 24.5482 15C24.5482 20.2568 20.6131 24.0943 15.1896 24.0943H15.1812ZM7.93317 15.0162C7.93317 10.839 10.914 7.91947 15.1812 7.91947L15.1896 7.9033C19.4779 7.9033 22.4924 10.8228 22.4924 15C22.4924 19.1771 19.4485 22.1129 15.1812 22.1129C10.914 22.1129 7.93317 19.1933 7.93317 15.0162ZM15.1813 18.9547C14.0922 18.9708 13.0438 18.557 12.2804 17.8097C11.517 17.0625 11.1052 16.0471 11.141 15C11.141 13.6073 11.9135 12.3205 13.1674 11.6241C14.4214 10.9278 15.9664 10.9278 17.2203 11.6241C18.4743 12.3205 19.2467 13.6073 19.2467 15C19.2755 16.0443 18.8603 17.0548 18.097 17.7981C17.3337 18.5414 16.2884 18.9532 15.2023 18.9386L15.1813 18.9547ZM13.2901 14.2478C13.6144 13.5238 14.3618 13.0604 15.1813 13.0752L15.2023 13.059C15.7418 13.0377 16.2649 13.2397 16.6395 13.6138C17.014 13.988 17.204 14.4984 17.1614 15.0162C17.1613 15.8045 16.6654 16.5144 15.9067 16.8126C15.1479 17.1108 14.2771 16.9379 13.703 16.3753C13.129 15.8126 12.9658 14.9718 13.2901 14.2478Z" fill="#041E25" fill-opacity="0.75"/>
</svg>
